<?xml version="1.0" encoding="UTF-8" standalone="no"?>
<!DOCTYPE svg PUBLIC "-//W3C//DTD SVG 20010904//EN"
              "http://www.w3.org/TR/2001/REC-SVG-20010904/DTD/svg10.dtd">

<svg xmlns="http://www.w3.org/2000/svg"
     width="132.275mm" height="132.275mm"
     viewBox="0 0 500 500">
  <path id="Selection"
        fill="none" stroke="black" stroke-width="1"
        d="M 253.69,130.04
           C 259.74,128.30 258.05,141.31 258.00,145.00
             257.97,147.00 258.08,150.62 256.31,151.96
             253.58,154.01 252.33,149.90 252.11,147.98
             251.60,143.60 251.24,133.51 253.69,130.04 Z
           M 285.00,159.00
           C 285.48,152.26 289.15,147.55 292.81,142.02
             293.75,140.60 296.19,136.71 298.40,138.17
             300.58,139.61 298.18,143.49 297.30,145.00
             294.30,150.12 291.35,157.94 285.00,159.00 Z
           M 165.00,269.00
           C 161.50,267.28 158.99,265.87 156.33,262.91
             148.63,254.34 147.67,240.56 154.11,231.01
             158.00,225.23 162.27,224.18 163.73,220.83
             164.58,218.72 163.57,213.87 163.73,211.00
             164.36,201.70 169.40,199.09 170.40,195.00
             171.08,192.19 168.79,186.48 171.01,181.00
             172.98,176.13 177.04,173.72 179.16,170.72
             182.09,166.58 182.81,158.24 194.00,154.13
             199.66,152.05 204.76,153.75 209.00,152.44
             212.88,151.25 215.80,148.00 223.35,147.37
             229.57,146.86 236.22,149.46 240.32,154.18
             243.45,157.79 243.74,162.98 249.02,164.08
             249.02,164.08 255.00,164.08 255.00,164.08
             262.80,165.42 271.10,168.57 278.00,172.31
             285.87,176.57 291.66,180.60 297.99,187.00
             324.84,214.20 324.47,246.59 307.74,279.00
             302.45,289.25 295.24,298.31 287.72,307.00
             279.63,316.34 274.02,320.05 274.00,333.00
             274.00,335.97 274.56,345.34 272.98,347.41
             272.05,348.62 271.23,348.57 270.00,349.00
             270.00,349.00 270.00,361.00 270.00,361.00
             270.00,361.00 267.00,361.00 267.00,361.00
             267.00,363.45 267.48,368.33 265.40,369.98
             263.81,371.23 259.99,371.00 258.00,371.00
             258.00,371.00 224.00,371.00 224.00,371.00
             216.12,370.85 217.01,368.29 217.00,361.00
             217.00,361.00 214.00,361.00 214.00,361.00
             214.00,361.00 214.00,349.00 214.00,349.00
             208.87,347.20 210.00,343.81 210.00,338.77
             206.37,339.00 201.47,339.19 198.00,338.77
             185.76,336.22 177.99,326.42 181.00,314.00
             172.64,309.51 170.13,305.31 170.05,296.09
             170.00,290.28 167.71,290.00 165.53,285.00
             163.13,279.50 163.30,274.63 165.00,269.00 Z
           M 240.00,225.00
           C 240.00,225.00 240.00,170.00 240.00,170.00
             240.00,167.48 240.11,164.40 239.35,162.00
             237.12,154.92 229.01,151.21 222.00,152.47
             215.85,153.58 213.65,156.63 210.00,157.33
             207.47,157.81 190.27,154.45 186.00,169.00
             190.22,168.48 192.99,167.79 196.89,170.19
             197.78,170.73 200.26,172.45 199.04,173.57
             197.81,175.04 194.49,173.65 193.00,173.57
             189.55,172.85 187.15,173.70 184.00,175.02
             178.36,177.38 174.90,180.48 175.06,187.00
             175.11,188.94 175.36,191.49 177.43,192.34
             180.64,193.65 197.19,189.88 197.98,189.99
             200.78,190.35 203.45,192.77 203.90,195.59
             204.55,199.68 200.12,204.19 196.00,203.13
             192.80,202.31 191.32,199.71 190.00,197.00
             178.97,197.00 169.63,198.39 168.64,212.00
             168.26,217.17 171.26,220.45 169.22,223.74
             167.61,226.34 163.40,227.17 159.39,232.04
             152.48,240.43 153.16,251.94 160.47,259.82
             165.55,265.29 176.75,269.20 183.75,265.35
             187.31,263.39 189.13,255.95 194.98,257.66
             201.25,259.48 201.71,267.11 195.96,269.86
             192.70,271.58 190.44,269.64 187.00,269.86
             187.00,269.86 179.00,271.15 179.00,271.15
             179.00,271.15 169.00,271.15 169.00,271.15
             168.47,275.80 168.17,279.48 170.45,284.00
             171.93,286.93 174.44,289.13 175.12,292.00
             175.66,294.27 173.42,307.42 181.93,308.13
             184.61,308.35 187.11,304.94 189.04,303.32
             192.34,300.54 194.90,299.20 199.00,298.00
             198.22,304.92 191.93,303.74 187.41,312.00
             182.34,321.30 187.11,330.51 197.00,333.36
             200.14,334.27 206.50,334.00 210.00,334.00
             208.66,331.81 206.96,329.33 205.99,327.00
             205.41,325.61 204.84,323.48 204.40,322.00
             204.29,320.71 203.99,319.36 204.40,318.04
             206.12,309.02 219.84,315.37 213.42,322.59
             212.35,323.79 211.31,324.22 210.00,325.00
             211.84,328.44 214.63,332.78 218.17,334.69
             225.30,338.53 235.93,334.54 238.99,327.00
             240.41,323.52 240.00,316.92 240.00,313.00
             240.00,313.00 240.00,286.00 240.00,286.00
             237.06,286.00 228.59,285.68 226.28,286.56
             223.39,287.66 221.00,291.30 217.04,290.16
             210.45,288.26 210.55,279.14 217.04,277.11
             221.53,275.71 223.36,279.74 227.17,280.86
             227.17,280.86 240.00,280.86 240.00,280.86
             240.00,280.86 240.00,229.00 240.00,229.00
             236.93,229.00 229.55,228.70 227.00,229.59
             223.56,230.80 221.02,234.44 217.02,233.21
             209.73,230.96 210.98,221.42 218.00,220.42
             222.01,219.85 224.15,223.29 227.17,224.42
             229.54,225.30 237.08,225.00 240.00,225.00 Z
           M 324.00,159.00
           C 324.20,165.39 319.37,168.79 315.00,172.98
             313.40,174.51 310.61,177.38 308.24,177.39
             302.72,177.43 310.15,169.88 311.01,169.00
             311.01,169.00 316.00,164.02 316.00,164.02
             319.07,161.08 319.92,160.20 324.00,159.00 Z
           M 212.13,162.00
           C 212.32,163.81 212.58,164.01 212.13,166.00
             211.93,168.08 210.78,169.75 211.12,172.00
             211.56,174.88 215.93,179.19 213.35,180.83
             210.88,182.40 206.39,177.77 205.62,173.00
             204.79,167.83 207.64,164.19 212.13,162.00 Z
           M 259.00,322.00
           C 261.80,322.00 267.33,322.40 269.63,320.98
             271.31,319.94 276.85,312.15 278.61,310.00
             285.60,301.51 292.56,294.32 298.66,285.00
             307.30,271.78 315.47,252.07 314.96,236.00
             313.80,199.57 281.09,169.00 245.00,169.00
             245.00,169.00 245.00,261.00 245.00,261.00
             253.52,259.47 266.48,259.47 275.00,261.00
             275.00,261.00 260.02,277.09 260.02,277.09
             260.02,277.09 259.00,291.00 259.00,291.00
             259.00,291.00 259.00,322.00 259.00,322.00 Z
           M 345.00,200.00
           C 345.00,200.00 336.00,203.00 336.00,203.00
             336.00,203.00 330.00,205.00 330.00,205.00
             328.79,205.39 319.50,208.25 322.17,203.45
             323.15,201.69 327.15,200.62 329.00,200.00
             331.99,198.99 340.79,195.26 343.41,197.06
             344.60,197.88 344.60,198.85 345.00,200.00 Z
           M 220.00,224.00
           C 220.00,224.00 216.00,225.00 216.00,225.00
             217.20,228.42 217.46,228.38 221.00,229.00
             221.00,229.00 220.00,224.00 220.00,224.00 Z
           M 171.84,224.00
           C 171.84,224.00 182.00,228.45 182.00,228.45
             182.00,228.45 193.00,227.84 193.00,227.84
             191.16,238.73 173.27,232.59 171.84,227.84
             171.22,226.22 171.71,225.33 171.84,224.00 Z
           M 325.00,245.00
           C 325.00,245.00 327.41,242.57 327.41,242.57
             327.41,242.57 350.00,242.00 350.00,242.00
             349.73,243.53 349.79,244.89 348.40,245.98
             346.92,247.15 343.82,246.99 342.00,247.00
             336.21,247.04 330.33,247.44 325.00,245.00 Z
           M 265.00,266.00
           C 265.00,266.00 245.00,266.00 245.00,266.00
             245.00,266.00 245.00,322.00 245.00,322.00
             245.00,322.00 254.00,322.00 254.00,322.00
             254.00,322.00 254.00,290.00 254.00,290.00
             254.00,290.00 255.02,276.01 255.02,276.01
             255.02,276.01 265.00,266.00 265.00,266.00 Z
           M 321.00,275.00
           C 328.02,275.74 337.74,281.44 344.00,285.00
             343.14,286.47 342.87,287.66 340.86,288.01
             338.87,288.36 335.78,286.63 334.00,285.75
             328.44,283.01 322.13,281.59 321.00,275.00 Z
           M 195.00,284.00
           C 186.12,285.81 189.04,286.09 182.73,289.40
             181.68,290.01 179.99,290.70 179.16,289.40
             178.13,287.65 180.04,285.33 181.15,284.21
             185.34,279.98 189.51,280.02 195.00,280.00
             195.00,280.00 195.00,284.00 195.00,284.00 Z
           M 309.00,300.00
           C 312.72,302.00 313.97,303.07 317.00,306.02
             317.00,306.02 321.00,310.00 321.00,310.00
             321.85,310.87 329.59,318.76 323.84,318.66
             321.54,318.63 318.56,315.49 317.00,313.98
             312.57,309.70 307.66,306.57 309.00,300.00 Z
           M 210.00,317.00
           C 210.00,317.00 208.00,318.00 208.00,318.00
             208.00,318.00 211.00,320.00 211.00,320.00
             211.00,320.00 210.00,317.00 210.00,317.00 Z
           M 268.86,327.00
           C 268.86,327.00 250.00,327.00 250.00,327.00
             240.32,327.17 244.77,331.76 235.00,337.86
             227.52,342.53 222.72,340.74 215.00,339.00
             215.00,339.00 218.42,348.04 218.42,348.04
             218.42,348.04 219.00,357.00 219.00,357.00
             219.00,357.00 222.00,357.00 222.00,357.00
             222.00,357.00 222.00,367.00 222.00,367.00
             222.00,367.00 240.00,367.00 240.00,367.00
             240.00,367.00 262.00,367.00 262.00,367.00
             262.02,361.20 261.52,360.05 266.00,356.00
             263.63,346.14 267.44,347.39 268.86,341.83
             268.86,341.83 268.86,327.00 268.86,327.00 Z" />
</svg>
